<?xml version="1.0" standalone="no"?>
<!DOCTYPE svg PUBLIC "-//W3C//DTD SVG 20010904//EN"
 "http://www.w3.org/TR/2001/REC-SVG-20010904/DTD/svg10.dtd">
<svg version="1.0" xmlns="http://www.w3.org/2000/svg"
 width="405.000000pt" height="405.000000pt" viewBox="0 0 405.000000 405.000000"
 preserveAspectRatio="xMidYMid meet">
<metadata>
Created by potrace 1.11, written by Peter Selinger 2001-2013
</metadata>
<g transform="translate(0.000000,405.000000) scale(0.100000,-0.100000)"
fill="#000000" stroke="none">
<path d="M1725 3925 c-592 -90 -1109 -446 -1400 -965 -259 -462 -312 -1029
-143 -1535 228 -683 822 -1183 1534 -1290 131 -20 147 -18 50 6 -44 11 -122
39 -174 64 -609 289 -741 1092 -255 1556 184 176 371 252 663 269 185 11 279
33 410 96 272 130 464 375 525 669 21 101 21 286 1 380 -41 190 -117 335 -250
474 -121 125 -254 206 -423 257 -79 24 -107 27 -268 30 -117 2 -212 -2 -270
-11z m537 -333 l33 -32 3 -393 c2 -429 3 -424 -57 -464 -33 -22 -42 -23 -238
-23 -221 0 -255 6 -286 53 -15 24 -17 66 -17 424 0 352 2 401 16 422 33 46 63
51 296 48 l218 -2 32 -33z"/>
<path d="M1820 3155 l0 -355 180 0 180 0 0 355 0 355 -180 0 -180 0 0 -355z"/>
<path d="M1792 1448 c-7 -7 -12 -27 -12 -44 0 -52 27 -64 142 -64 l98 0 0
-350 0 -350 -105 0 c-92 0 -108 -3 -125 -20 -11 -11 -20 -29 -20 -40 0 -11 9
-29 20 -40 19 -19 33 -20 283 -20 243 0 265 1 280 18 15 16 17 45 17 200 0
176 -1 181 -22 196 -31 22 -45 20 -73 -9 -24 -23 -25 -29 -25 -155 l0 -130
-60 0 -60 0 0 410 0 410 -163 0 c-113 0 -167 -4 -175 -12z"/>
</g>
</svg>
