<?xml version="1.0" encoding="UTF-8" standalone="no"?>
<!DOCTYPE svg PUBLIC "-//W3C//DTD SVG 1.1//EN" "http://www.w3.org/Graphics/SVG/1.1/DTD/svg11.dtd">
<svg width="100%" height="100%" viewBox="0 0 1000 1000" version="1.1" xmlns="http://www.w3.org/2000/svg" xmlns:xlink="http://www.w3.org/1999/xlink" xml:space="preserve" xmlns:serif="http://www.serif.com/" style="fill-rule:evenodd;clip-rule:evenodd;stroke-linejoin:round;stroke-miterlimit:1.41421;">
    <g id="circle13" transform="matrix(0.0112254,0,0,0.0112254,0,0)">
        <circle cx="44358.3" cy="44541.7" r="43679.2" style="fill:rgb(254,254,254);"/>
    </g>
    <g id="path15" transform="matrix(0.0112254,0,0,0.0112254,0,0)">
        <path d="M44541.7,0C69141.7,0 89083.4,19941.7 89083.4,44541.7C89083.4,69141.7 69141.7,89083.4 44541.7,89083.4C19941.7,89083.4 0,69141.7 0,44541.7C0,19941.7 19941.7,0 44541.7,0ZM44091.7,2304.17C43883.4,2304.17 43675,2308.34 43466.7,2312.5C20433.4,2645.84 1845.9,21437.5 1845.9,44545.8C1845.9,67683.3 20475.1,86487.5 43545.9,86779.1C32137.6,86491.6 22970.9,77141.6 22970.9,65666.6C22970.9,54008.3 32433.4,44545.8 44091.7,44545.8C55750,44545.8 65212.5,35083.3 65212.5,23425C65212.5,11766.7 55750,2304.2 44091.7,2304.2L44091.7,2304.17Z"/>
    </g>
    <g id="path17" transform="matrix(0.0112254,0,0,0.0112254,0,0)">
        <path d="M37425,27579.2L37425,11833.4C37425,11145.9 37675,10550.1 38179.2,10050.1C38679.2,9550.07 39275,9295.9 39966.7,9295.9L48175,9295.9C48854.2,9295.9 49441.7,9545.9 49937.5,10050.1C50433.3,10550.1 50679.2,11145.9 50679.2,11833.4L50679.2,27579.2C50679.2,28279.2 50429.2,28875 49937.5,29370.9C49441.7,29866.7 48841.7,30112.5 48141.7,30112.5L39966.7,30112.5C39258.3,30112.5 38654.2,29866.7 38162.5,29370.9C37670.8,28875 37429.2,28279.2 37429.2,27579.2L37425,27579.2L37425,27579.2ZM48079.2,27483.3L48079.2,11962.5L40058.4,11962.5L40058.4,27483.3L48079.2,27483.3Z"/>
    </g>
    <g id="path19" transform="matrix(0.0112254,0,0,0.0112254,0,0)">
        <path d="M40425,75179.2L44466.7,75179.2L44466.7,59658.4L40491.7,59658.4C40125,59658.4 39816.7,59529.2 39558.3,59275.1C39300,59020.9 39175,58708.4 39175,58341.7C39175,57979.2 39304.2,57666.7 39558.3,57412.6C39812.5,57158.4 40125,57029.2 40491.7,57029.2L47100,57029.2L47100,75183.4L49733.3,75183.4L49733.3,69704.3C49733.3,69350.1 49862.5,69041.8 50116.7,68779.3C50370.8,68516.8 50683.3,68387.6 51045.8,68387.6C51412.5,68387.6 51725,68516.8 51979.2,68770.9C52233.3,69029.3 52362.5,69337.6 52362.5,69704.3L52362.5,76500.1C52362.5,76866.8 52233.3,77179.3 51979.2,77437.6C51725,77691.8 51416.7,77816.8 51045.8,77816.8L40425,77816.8C40058.4,77816.8 39750,77683.4 39495.9,77420.9C39237.5,77154.3 39112.5,76837.6 39112.5,76470.9C39112.5,76116.8 39241.7,75812.6 39495.9,75558.4C39750,75308.4 40062.5,75183.4 40425,75183.4L40425,75179.3L40425,75179.2Z" style="fill:white;"/>
    </g>
</svg>
